<?xml version="1.0" encoding="UTF-8" standalone="no"?>
<!DOCTYPE svg PUBLIC "-//W3C//DTD SVG 1.1//EN" "http://www.w3.org/Graphics/SVG/1.1/DTD/svg11.dtd">
<svg version="1.1" xmlns="http://www.w3.org/2000/svg" xmlns:xlink="http://www.w3.org/1999/xlink" preserveAspectRatio="xMidYMid meet" viewBox="0 0 640 640" width="700" height="700"><defs><path d="M197.59 410.98L279.67 476.78L277.54 187.38L197.59 123.69L197.59 410.98Z" id="b2znRrCx3t"></path><linearGradient id="gradientfowGTu2BI" gradientUnits="userSpaceOnUse" x1="238.63" y1="157.74" x2="235.08" y2="441.32"><stop style="stop-color: #1aa88e;stop-opacity: 1" offset="0%"></stop><stop style="stop-color: #7ae335;stop-opacity: 1" offset="100%"></stop></linearGradient><path d="M473.84 229.58L473.89 229.58L473.94 229.59L473.99 229.6L474.04 229.61L474.09 229.62L474.14 229.64L474.18 229.65L474.23 229.67L474.27 229.69L474.32 229.71L474.36 229.74L474.4 229.76L474.44 229.79L474.48 229.82L474.52 229.84L474.55 229.88L474.59 229.91L474.62 229.94L474.66 229.98L474.69 230.01L474.72 230.05L474.75 230.09L474.78 230.13L474.8 230.17L474.83 230.21L474.85 230.25L474.87 230.29L474.89 230.34L474.91 230.38L474.93 230.43L474.94 230.48L474.95 230.52L474.97 230.57L474.97 230.62L474.98 230.67L474.99 230.72L474.99 230.77L474.99 230.82L474.99 255.82L499.99 255.82L500.04 255.83L500.09 255.83L500.14 255.83L500.19 255.84L500.24 255.85L500.29 255.86L500.34 255.87L500.39 255.89L500.43 255.9L500.48 255.92L500.52 255.94L500.57 255.96L500.61 255.99L500.65 256.01L500.69 256.04L500.73 256.07L500.77 256.09L500.8 256.13L500.84 256.16L500.87 256.19L500.91 256.23L500.94 256.26L500.97 256.3L501 256.34L501.03 256.38L501.05 256.42L501.08 256.46L501.1 256.5L501.12 256.54L501.14 256.59L501.16 256.63L501.18 256.68L501.19 256.73L501.2 256.77L501.22 256.82L501.22 256.87L501.23 256.92L501.24 256.97L501.24 257.02L501.24 257.07L501.24 277.07L501.24 277.13L501.24 277.18L501.23 277.23L501.22 277.28L501.22 277.33L501.2 277.37L501.19 277.42L501.18 277.47L501.16 277.52L501.14 277.56L501.12 277.61L501.1 277.65L501.08 277.69L501.05 277.73L501.03 277.77L501 277.81L500.97 277.85L500.94 277.89L500.91 277.92L500.87 277.96L500.84 277.99L500.8 278.02L500.77 278.05L500.73 278.08L500.69 278.11L500.65 278.14L500.61 278.16L500.57 278.18L500.52 278.21L500.48 278.23L500.43 278.24L500.39 278.26L500.34 278.28L500.29 278.29L500.24 278.3L500.19 278.31L500.14 278.32L500.09 278.32L500.04 278.32L499.99 278.32L474.99 278.32L474.99 303.32L474.99 303.38L474.99 303.43L474.98 303.48L474.97 303.53L474.97 303.58L474.95 303.62L474.94 303.67L474.93 303.72L474.91 303.77L474.89 303.81L474.87 303.86L474.85 303.9L474.83 303.94L474.8 303.98L474.78 304.02L474.75 304.06L474.72 304.1L474.69 304.14L474.66 304.17L474.62 304.21L474.59 304.24L474.55 304.27L474.52 304.3L474.48 304.33L474.44 304.36L474.4 304.39L474.36 304.41L474.32 304.43L474.27 304.46L474.23 304.48L474.18 304.49L474.14 304.51L474.09 304.53L474.04 304.54L473.99 304.55L473.94 304.56L473.89 304.57L473.84 304.57L473.79 304.57L473.74 304.57L453.74 304.57L453.69 304.57L453.64 304.57L453.59 304.57L453.54 304.56L453.49 304.55L453.44 304.54L453.39 304.53L453.35 304.51L453.3 304.49L453.25 304.48L453.21 304.46L453.17 304.43L453.12 304.41L453.08 304.39L453.04 304.36L453 304.33L452.96 304.3L452.93 304.27L452.89 304.24L452.86 304.21L452.82 304.17L452.79 304.14L452.76 304.1L452.73 304.06L452.7 304.02L452.68 303.98L452.65 303.94L452.63 303.9L452.61 303.86L452.59 303.81L452.57 303.77L452.55 303.72L452.54 303.67L452.53 303.62L452.52 303.58L452.51 303.53L452.5 303.48L452.5 303.43L452.49 303.38L452.49 303.32L452.49 278.32L427.49 278.32L427.44 278.32L427.39 278.32L427.34 278.32L427.29 278.31L427.24 278.3L427.19 278.29L427.14 278.28L427.1 278.26L427.05 278.24L427 278.23L426.96 278.21L426.92 278.18L426.87 278.16L426.83 278.14L426.79 278.11L426.75 278.08L426.71 278.05L426.68 278.02L426.64 277.99L426.61 277.96L426.57 277.92L426.54 277.89L426.51 277.85L426.48 277.81L426.45 277.77L426.43 277.73L426.4 277.69L426.38 277.65L426.36 277.61L426.34 277.56L426.32 277.52L426.3 277.47L426.29 277.42L426.28 277.37L426.27 277.33L426.26 277.28L426.25 277.23L426.25 277.18L426.24 277.13L426.24 277.07L426.24 257.07L426.24 257.02L426.25 256.97L426.25 256.92L426.26 256.87L426.27 256.82L426.28 256.77L426.29 256.73L426.3 256.68L426.32 256.63L426.34 256.59L426.36 256.54L426.38 256.5L426.4 256.46L426.43 256.42L426.45 256.38L426.48 256.34L426.51 256.3L426.54 256.26L426.57 256.23L426.61 256.19L426.64 256.16L426.68 256.13L426.71 256.09L426.75 256.07L426.79 256.04L426.83 256.01L426.87 255.99L426.92 255.96L426.96 255.94L427 255.92L427.05 255.9L427.1 255.89L427.14 255.87L427.19 255.86L427.24 255.85L427.29 255.84L427.34 255.83L427.39 255.83L427.44 255.83L427.49 255.82L452.49 255.82L452.49 230.82L452.49 230.77L452.5 230.72L452.5 230.67L452.51 230.62L452.52 230.57L452.53 230.52L452.54 230.48L452.55 230.43L452.57 230.38L452.59 230.34L452.61 230.29L452.63 230.25L452.65 230.21L452.68 230.17L452.7 230.13L452.73 230.09L452.76 230.05L452.79 230.01L452.82 229.98L452.86 229.94L452.89 229.91L452.93 229.88L452.96 229.84L453 229.82L453.04 229.79L453.08 229.76L453.12 229.74L453.17 229.71L453.21 229.69L453.25 229.67L453.3 229.65L453.35 229.64L453.39 229.62L453.44 229.61L453.49 229.6L453.54 229.59L453.59 229.58L453.64 229.58L453.69 229.58L453.74 229.57L473.74 229.57L473.79 229.58L473.84 229.58Z" id="h152B2YO7U"></path><linearGradient id="gradientc1b2M3GjJW" gradientUnits="userSpaceOnUse" x1="463.74" y1="229.57" x2="463.74" y2="304.57"><stop style="stop-color: #18a790;stop-opacity: 1" offset="0%"></stop><stop style="stop-color: #29b17f;stop-opacity: 1" offset="100%"></stop></linearGradient><path d="M373.07 354.32L450.91 421.54L290.99 476.78L290.99 384.75L373.07 354.32Z" id="c6StzAMzb"></path><linearGradient id="gradienta1Hd82I2fW" gradientUnits="userSpaceOnUse" x1="370.95" y1="354.32" x2="370.95" y2="476.78"><stop style="stop-color: #ffffff;stop-opacity: 1" offset="0%"></stop><stop style="stop-color: #010000;stop-opacity: 1" offset="100%"></stop></linearGradient><linearGradient id="gradienta3FtH2O3uT" gradientUnits="userSpaceOnUse" x1="290.99" y1="428.62" x2="407.74" y2="384.8"><stop style="stop-color: #18a690;stop-opacity: 1" offset="0%"></stop><stop style="stop-color: #7ae335;stop-opacity: 1" offset="100%"></stop></linearGradient><path d="M375.87 229.58L375.92 229.58L375.97 229.59L376.01 229.6L376.06 229.61L376.11 229.62L376.16 229.64L376.2 229.65L376.25 229.67L376.29 229.69L376.34 229.71L376.38 229.74L376.42 229.76L376.46 229.79L376.5 229.82L376.54 229.84L376.58 229.88L376.61 229.91L376.65 229.94L376.68 229.98L376.71 230.01L376.74 230.05L376.77 230.09L376.8 230.13L376.83 230.17L376.85 230.21L376.87 230.25L376.89 230.29L376.91 230.34L376.93 230.38L376.95 230.43L376.96 230.48L376.98 230.52L376.99 230.57L377 230.62L377 230.67L377.01 230.72L377.01 230.77L377.01 230.82L377.01 255.82L402.01 255.82L402.06 255.83L402.12 255.83L402.17 255.83L402.22 255.84L402.26 255.85L402.31 255.86L402.36 255.87L402.41 255.89L402.45 255.9L402.5 255.92L402.54 255.94L402.59 255.96L402.63 255.99L402.67 256.01L402.71 256.04L402.75 256.07L402.79 256.09L402.83 256.13L402.86 256.16L402.9 256.19L402.93 256.23L402.96 256.26L402.99 256.3L403.02 256.34L403.05 256.38L403.08 256.42L403.1 256.46L403.12 256.5L403.14 256.54L403.16 256.59L403.18 256.63L403.2 256.68L403.21 256.73L403.23 256.77L403.24 256.82L403.25 256.87L403.25 256.92L403.26 256.97L403.26 257.02L403.26 257.07L403.26 277.07L403.26 277.13L403.26 277.18L403.25 277.23L403.25 277.28L403.24 277.33L403.23 277.37L403.21 277.42L403.2 277.47L403.18 277.52L403.16 277.56L403.14 277.61L403.12 277.65L403.1 277.69L403.08 277.73L403.05 277.77L403.02 277.81L402.99 277.85L402.96 277.89L402.93 277.92L402.9 277.96L402.86 277.99L402.83 278.02L402.79 278.05L402.75 278.08L402.71 278.11L402.67 278.14L402.63 278.16L402.59 278.18L402.54 278.21L402.5 278.23L402.45 278.24L402.41 278.26L402.36 278.28L402.31 278.29L402.26 278.3L402.22 278.31L402.17 278.32L402.12 278.32L402.06 278.32L402.01 278.32L377.01 278.32L377.01 303.32L377.01 303.38L377.01 303.43L377 303.48L377 303.53L376.99 303.58L376.98 303.62L376.96 303.67L376.95 303.72L376.93 303.77L376.91 303.81L376.89 303.86L376.87 303.9L376.85 303.94L376.83 303.98L376.8 304.02L376.77 304.06L376.74 304.1L376.71 304.14L376.68 304.17L376.65 304.21L376.61 304.24L376.58 304.27L376.54 304.3L376.5 304.33L376.46 304.36L376.42 304.39L376.38 304.41L376.34 304.43L376.29 304.46L376.25 304.48L376.2 304.49L376.16 304.51L376.11 304.53L376.06 304.54L376.01 304.55L375.97 304.56L375.92 304.57L375.87 304.57L375.81 304.57L375.76 304.57L355.76 304.57L355.71 304.57L355.66 304.57L355.61 304.57L355.56 304.56L355.51 304.55L355.46 304.54L355.41 304.53L355.37 304.51L355.32 304.49L355.28 304.48L355.23 304.46L355.19 304.43L355.15 304.41L355.1 304.39L355.06 304.36L355.02 304.33L354.99 304.3L354.95 304.27L354.91 304.24L354.88 304.21L354.85 304.17L354.81 304.14L354.78 304.1L354.75 304.06L354.73 304.02L354.7 303.98L354.68 303.94L354.65 303.9L354.63 303.86L354.61 303.81L354.59 303.77L354.58 303.72L354.56 303.67L354.55 303.62L354.54 303.58L354.53 303.53L354.52 303.48L354.52 303.43L354.51 303.38L354.51 303.32L354.51 278.32L329.51 278.32L329.46 278.32L329.41 278.32L329.36 278.32L329.31 278.31L329.26 278.3L329.21 278.29L329.16 278.28L329.12 278.26L329.07 278.24L329.03 278.23L328.98 278.21L328.94 278.18L328.9 278.16L328.85 278.14L328.81 278.11L328.77 278.08L328.74 278.05L328.7 278.02L328.66 277.99L328.63 277.96L328.6 277.92L328.56 277.89L328.53 277.85L328.5 277.81L328.48 277.77L328.45 277.73L328.43 277.69L328.4 277.65L328.38 277.61L328.36 277.56L328.34 277.52L328.33 277.47L328.31 277.42L328.3 277.37L328.29 277.33L328.28 277.28L328.27 277.23L328.27 277.18L328.26 277.13L328.26 277.07L328.26 257.07L328.26 257.02L328.27 256.97L328.27 256.92L328.28 256.87L328.29 256.82L328.3 256.77L328.31 256.73L328.33 256.68L328.34 256.63L328.36 256.59L328.38 256.54L328.4 256.5L328.43 256.46L328.45 256.42L328.48 256.38L328.5 256.34L328.53 256.3L328.56 256.26L328.6 256.23L328.63 256.19L328.66 256.16L328.7 256.13L328.74 256.09L328.77 256.07L328.81 256.04L328.85 256.01L328.9 255.99L328.94 255.96L328.98 255.94L329.03 255.92L329.07 255.9L329.12 255.89L329.16 255.87L329.21 255.86L329.26 255.85L329.31 255.84L329.36 255.83L329.41 255.83L329.46 255.83L329.51 255.82L354.51 255.82L354.51 230.82L354.51 230.77L354.52 230.72L354.52 230.67L354.53 230.62L354.54 230.57L354.55 230.52L354.56 230.48L354.58 230.43L354.59 230.38L354.61 230.34L354.63 230.29L354.65 230.25L354.68 230.21L354.7 230.17L354.73 230.13L354.75 230.09L354.78 230.05L354.81 230.01L354.85 229.98L354.88 229.94L354.91 229.91L354.95 229.88L354.99 229.84L355.02 229.82L355.06 229.79L355.1 229.76L355.15 229.74L355.19 229.71L355.23 229.69L355.28 229.67L355.32 229.65L355.37 229.64L355.41 229.62L355.46 229.61L355.51 229.6L355.56 229.59L355.61 229.58L355.66 229.58L355.71 229.58L355.76 229.57L375.76 229.57L375.81 229.58L375.87 229.58Z" id="c1ObRuXZTT"></path><linearGradient id="gradiente14letyuTy" gradientUnits="userSpaceOnUse" x1="365.76" y1="229.57" x2="365.76" y2="304.57"><stop style="stop-color: #17a690;stop-opacity: 1" offset="0%"></stop><stop style="stop-color: #2ab17f;stop-opacity: 1" offset="100%"></stop></linearGradient></defs><g><g><g><use xlink:href="#b2znRrCx3t" opacity="1" fill="url(#gradientfowGTu2BI)"></use></g><g><use xlink:href="#h152B2YO7U" opacity="1" fill="url(#gradientc1b2M3GjJW)"></use></g><g><use xlink:href="#c6StzAMzb" opacity="1" fill="url(#gradienta1Hd82I2fW)"></use><use xlink:href="#c6StzAMzb" opacity="1" fill="url(#gradienta3FtH2O3uT)"></use></g><g><use xlink:href="#c1ObRuXZTT" opacity="1" fill="url(#gradiente14letyuTy)"></use></g></g></g></svg>