<?xml version="1.0" encoding="UTF-8"?>
<svg xmlns="http://www.w3.org/2000/svg" xmlns:xlink="http://www.w3.org/1999/xlink" width="256pt" height="256pt" viewBox="0 0 256 256" version="1.1">
<defs>
<linearGradient id="linear0" gradientUnits="userSpaceOnUse" x1="238.63" y1="157.74" x2="235.08" y2="441.32" gradientTransform="matrix(0.4,0,0,0.4,0,0)">
<stop offset="0" style="stop-color:rgb(10.196078%,65.882353%,55.686275%);stop-opacity:1;"/>
<stop offset="1" style="stop-color:rgb(47.843137%,89.019608%,20.784314%);stop-opacity:1;"/>
</linearGradient>
<linearGradient id="linear1" gradientUnits="userSpaceOnUse" x1="463.74" y1="229.57" x2="463.74" y2="304.57" gradientTransform="matrix(0.4,0,0,0.4,0,0)">
<stop offset="0" style="stop-color:rgb(9.411765%,65.490196%,56.470588%);stop-opacity:1;"/>
<stop offset="1" style="stop-color:rgb(16.078431%,69.411765%,49.803922%);stop-opacity:1;"/>
</linearGradient>
<linearGradient id="linear2" gradientUnits="userSpaceOnUse" x1="370.95" y1="354.32" x2="370.95" y2="476.78" gradientTransform="matrix(0.4,0,0,0.4,0,0)">
<stop offset="0" style="stop-color:rgb(100%,100%,100%);stop-opacity:1;"/>
<stop offset="1" style="stop-color:rgb(0.392157%,0%,0%);stop-opacity:1;"/>
</linearGradient>
<linearGradient id="linear3" gradientUnits="userSpaceOnUse" x1="290.99" y1="428.62" x2="407.74" y2="384.8" gradientTransform="matrix(0.4,0,0,0.4,0,0)">
<stop offset="0" style="stop-color:rgb(9.411765%,65.098039%,56.470588%);stop-opacity:1;"/>
<stop offset="1" style="stop-color:rgb(47.843137%,89.019608%,20.784314%);stop-opacity:1;"/>
</linearGradient>
<linearGradient id="linear4" gradientUnits="userSpaceOnUse" x1="365.76" y1="229.57" x2="365.76" y2="304.57" gradientTransform="matrix(0.4,0,0,0.4,0,0)">
<stop offset="0" style="stop-color:rgb(9.019608%,65.098039%,56.470588%);stop-opacity:1;"/>
<stop offset="1" style="stop-color:rgb(16.470588%,69.411765%,49.803922%);stop-opacity:1;"/>
</linearGradient>
</defs>
<g id="surface1">
<path style=" stroke:none;fill-rule:nonzero;fill:url(#linear0);" d="M 79.035156 164.390625 L 111.867188 190.710938 L 111.015625 74.953125 L 79.035156 49.476562 Z M 79.035156 164.390625 "/>
<path style=" stroke:none;fill-rule:nonzero;fill:url(#linear1);" d="M 189.535156 91.832031 L 189.554688 91.832031 L 189.574219 91.835938 L 189.597656 91.839844 L 189.636719 91.847656 L 189.65625 91.855469 L 189.671875 91.859375 L 189.691406 91.867188 L 189.707031 91.875 L 189.726562 91.882812 L 189.742188 91.894531 L 189.761719 91.902344 L 189.777344 91.914062 L 189.792969 91.929688 L 189.808594 91.9375 L 189.820312 91.953125 L 189.835938 91.964844 L 189.875 92.003906 L 189.921875 92.066406 L 189.933594 92.085938 L 189.949219 92.117188 L 189.957031 92.136719 L 189.964844 92.152344 L 189.972656 92.171875 L 189.976562 92.191406 L 189.980469 92.207031 L 189.988281 92.226562 L 189.988281 92.246094 L 189.992188 92.269531 L 189.996094 92.289062 L 189.996094 102.328125 L 199.996094 102.328125 L 200.015625 102.332031 L 200.054688 102.332031 L 200.074219 102.335938 L 200.097656 102.339844 L 200.136719 102.347656 L 200.15625 102.355469 L 200.171875 102.359375 L 200.191406 102.367188 L 200.207031 102.375 L 200.226562 102.382812 L 200.242188 102.394531 L 200.261719 102.402344 L 200.277344 102.414062 L 200.292969 102.429688 L 200.308594 102.4375 L 200.320312 102.453125 L 200.335938 102.464844 L 200.375 102.503906 L 200.421875 102.566406 L 200.433594 102.585938 L 200.449219 102.617188 L 200.457031 102.636719 L 200.464844 102.652344 L 200.472656 102.671875 L 200.476562 102.691406 L 200.480469 102.707031 L 200.488281 102.726562 L 200.488281 102.746094 L 200.492188 102.769531 L 200.496094 102.789062 L 200.496094 110.871094 L 200.488281 110.910156 L 200.488281 110.933594 L 200.480469 110.949219 L 200.472656 110.988281 L 200.464844 111.007812 L 200.457031 111.023438 L 200.449219 111.042969 L 200.433594 111.074219 L 200.421875 111.09375 L 200.375 111.15625 L 200.335938 111.195312 L 200.320312 111.207031 L 200.308594 111.21875 L 200.277344 111.242188 L 200.261719 111.257812 L 200.242188 111.265625 L 200.226562 111.273438 L 200.207031 111.285156 L 200.191406 111.292969 L 200.171875 111.296875 L 200.15625 111.304688 L 200.136719 111.3125 L 200.097656 111.320312 L 200.074219 111.324219 L 200.054688 111.328125 L 189.996094 111.328125 L 189.996094 121.371094 L 189.988281 121.410156 L 189.988281 121.433594 L 189.980469 121.449219 L 189.972656 121.488281 L 189.964844 121.507812 L 189.957031 121.523438 L 189.949219 121.542969 L 189.933594 121.574219 L 189.921875 121.59375 L 189.875 121.65625 L 189.835938 121.695312 L 189.820312 121.707031 L 189.808594 121.71875 L 189.777344 121.742188 L 189.761719 121.757812 L 189.742188 121.765625 L 189.726562 121.773438 L 189.707031 121.785156 L 189.691406 121.792969 L 189.671875 121.796875 L 189.65625 121.804688 L 189.636719 121.8125 L 189.597656 121.820312 L 189.574219 121.824219 L 189.554688 121.828125 L 181.4375 121.828125 L 181.414062 121.824219 L 181.355469 121.8125 L 181.339844 121.804688 L 181.320312 121.796875 L 181.300781 121.792969 L 181.285156 121.785156 L 181.269531 121.773438 L 181.246094 121.765625 L 181.230469 121.757812 L 181.214844 121.742188 L 181.183594 121.71875 L 181.171875 121.707031 L 181.15625 121.695312 L 181.117188 121.65625 L 181.09375 121.625 L 181.078125 121.609375 L 181.070312 121.59375 L 181.058594 121.574219 L 181.042969 121.542969 L 181.035156 121.523438 L 181.027344 121.507812 L 181.019531 121.488281 L 181.011719 121.449219 L 181.007812 121.433594 L 181.003906 121.410156 L 181 121.390625 L 181 121.371094 L 180.996094 121.351562 L 180.996094 111.328125 L 170.9375 111.328125 L 170.914062 111.324219 L 170.855469 111.3125 L 170.839844 111.304688 L 170.820312 111.296875 L 170.800781 111.292969 L 170.785156 111.285156 L 170.769531 111.273438 L 170.746094 111.265625 L 170.730469 111.257812 L 170.714844 111.242188 L 170.683594 111.21875 L 170.671875 111.207031 L 170.65625 111.195312 L 170.617188 111.15625 L 170.59375 111.125 L 170.578125 111.109375 L 170.570312 111.09375 L 170.558594 111.074219 L 170.542969 111.042969 L 170.535156 111.023438 L 170.527344 111.007812 L 170.519531 110.988281 L 170.511719 110.949219 L 170.507812 110.933594 L 170.503906 110.910156 L 170.5 110.890625 L 170.5 110.871094 L 170.496094 110.851562 L 170.496094 102.808594 L 170.5 102.789062 L 170.5 102.769531 L 170.503906 102.746094 L 170.511719 102.707031 L 170.515625 102.691406 L 170.519531 102.671875 L 170.527344 102.652344 L 170.535156 102.636719 L 170.542969 102.617188 L 170.558594 102.585938 L 170.570312 102.566406 L 170.578125 102.550781 L 170.59375 102.535156 L 170.617188 102.503906 L 170.65625 102.464844 L 170.671875 102.453125 L 170.683594 102.4375 L 170.699219 102.429688 L 170.714844 102.414062 L 170.730469 102.402344 L 170.800781 102.367188 L 170.820312 102.359375 L 170.839844 102.355469 L 170.855469 102.347656 L 170.914062 102.335938 L 170.9375 102.332031 L 170.976562 102.332031 L 170.996094 102.328125 L 180.996094 102.328125 L 180.996094 92.308594 L 181 92.289062 L 181 92.269531 L 181.003906 92.246094 L 181.011719 92.207031 L 181.015625 92.191406 L 181.019531 92.171875 L 181.027344 92.152344 L 181.035156 92.136719 L 181.042969 92.117188 L 181.058594 92.085938 L 181.070312 92.066406 L 181.078125 92.050781 L 181.09375 92.035156 L 181.117188 92.003906 L 181.15625 91.964844 L 181.171875 91.953125 L 181.183594 91.9375 L 181.199219 91.929688 L 181.214844 91.914062 L 181.230469 91.902344 L 181.300781 91.867188 L 181.320312 91.859375 L 181.339844 91.855469 L 181.355469 91.847656 L 181.414062 91.835938 L 181.4375 91.832031 L 181.476562 91.832031 L 181.496094 91.828125 L 189.496094 91.828125 L 189.515625 91.832031 Z M 189.535156 91.832031 "/>
<path style=" stroke:none;fill-rule:nonzero;fill:url(#linear2);" d="M 149.226562 141.726562 L 180.363281 168.617188 L 116.394531 190.710938 L 116.394531 153.898438 Z M 149.226562 141.726562 "/>
<path style=" stroke:none;fill-rule:nonzero;fill:url(#linear3);" d="M 149.226562 141.726562 L 180.363281 168.617188 L 116.394531 190.710938 L 116.394531 153.898438 Z M 149.226562 141.726562 "/>
<path style=" stroke:none;fill-rule:nonzero;fill:url(#linear4);" d="M 150.347656 91.832031 L 150.367188 91.832031 L 150.386719 91.835938 L 150.402344 91.839844 L 150.425781 91.84375 L 150.445312 91.847656 L 150.464844 91.855469 L 150.480469 91.859375 L 150.5 91.867188 L 150.515625 91.875 L 150.535156 91.882812 L 150.550781 91.894531 L 150.566406 91.902344 L 150.585938 91.914062 L 150.601562 91.929688 L 150.617188 91.9375 L 150.644531 91.964844 L 150.660156 91.976562 L 150.671875 91.992188 L 150.683594 92.003906 L 150.730469 92.066406 L 150.738281 92.085938 L 150.746094 92.101562 L 150.757812 92.117188 L 150.765625 92.136719 L 150.773438 92.152344 L 150.78125 92.171875 L 150.785156 92.191406 L 150.792969 92.207031 L 150.800781 92.246094 L 150.800781 92.269531 L 150.804688 92.289062 L 150.804688 102.328125 L 160.804688 102.328125 L 160.824219 102.332031 L 160.867188 102.332031 L 160.886719 102.335938 L 160.902344 102.339844 L 160.925781 102.34375 L 160.945312 102.347656 L 160.964844 102.355469 L 160.980469 102.359375 L 161 102.367188 L 161.015625 102.375 L 161.035156 102.382812 L 161.050781 102.394531 L 161.066406 102.402344 L 161.085938 102.414062 L 161.101562 102.429688 L 161.117188 102.4375 L 161.144531 102.464844 L 161.160156 102.476562 L 161.171875 102.492188 L 161.183594 102.503906 L 161.230469 102.566406 L 161.238281 102.585938 L 161.246094 102.601562 L 161.257812 102.617188 L 161.265625 102.636719 L 161.273438 102.652344 L 161.28125 102.671875 L 161.285156 102.691406 L 161.292969 102.707031 L 161.300781 102.746094 L 161.300781 102.769531 L 161.304688 102.789062 L 161.304688 110.871094 L 161.300781 110.890625 L 161.300781 110.910156 L 161.296875 110.933594 L 161.292969 110.949219 L 161.285156 110.96875 L 161.28125 110.988281 L 161.273438 111.007812 L 161.265625 111.023438 L 161.257812 111.042969 L 161.246094 111.058594 L 161.238281 111.074219 L 161.230469 111.09375 L 161.183594 111.15625 L 161.171875 111.167969 L 161.160156 111.183594 L 161.144531 111.195312 L 161.132812 111.207031 L 161.085938 111.242188 L 161.066406 111.257812 L 161.035156 111.273438 L 161.015625 111.285156 L 161 111.292969 L 160.980469 111.296875 L 160.964844 111.304688 L 160.945312 111.3125 L 160.925781 111.316406 L 160.902344 111.320312 L 160.886719 111.324219 L 160.867188 111.328125 L 150.804688 111.328125 L 150.804688 121.371094 L 150.800781 121.390625 L 150.800781 121.410156 L 150.796875 121.433594 L 150.792969 121.449219 L 150.785156 121.46875 L 150.78125 121.488281 L 150.773438 121.507812 L 150.765625 121.523438 L 150.757812 121.542969 L 150.746094 121.558594 L 150.738281 121.574219 L 150.730469 121.59375 L 150.683594 121.65625 L 150.671875 121.667969 L 150.660156 121.683594 L 150.644531 121.695312 L 150.632812 121.707031 L 150.585938 121.742188 L 150.566406 121.757812 L 150.535156 121.773438 L 150.515625 121.785156 L 150.5 121.792969 L 150.480469 121.796875 L 150.464844 121.804688 L 150.445312 121.8125 L 150.425781 121.816406 L 150.402344 121.820312 L 150.386719 121.824219 L 150.367188 121.828125 L 142.242188 121.828125 L 142.164062 121.8125 L 142.148438 121.804688 L 142.128906 121.796875 L 142.113281 121.792969 L 142.09375 121.785156 L 142.074219 121.773438 L 142.058594 121.765625 L 142.039062 121.757812 L 142.023438 121.742188 L 142.007812 121.730469 L 141.996094 121.71875 L 141.964844 121.695312 L 141.953125 121.683594 L 141.941406 121.667969 L 141.925781 121.65625 L 141.910156 121.640625 L 141.898438 121.625 L 141.890625 121.609375 L 141.878906 121.59375 L 141.871094 121.574219 L 141.859375 121.558594 L 141.851562 121.542969 L 141.84375 121.523438 L 141.835938 121.507812 L 141.832031 121.488281 L 141.824219 121.46875 L 141.820312 121.449219 L 141.816406 121.433594 L 141.8125 121.410156 L 141.808594 121.390625 L 141.808594 121.371094 L 141.804688 121.351562 L 141.804688 111.328125 L 131.742188 111.328125 L 131.664062 111.3125 L 131.648438 111.304688 L 131.628906 111.296875 L 131.613281 111.292969 L 131.59375 111.285156 L 131.574219 111.273438 L 131.558594 111.265625 L 131.539062 111.257812 L 131.523438 111.242188 L 131.507812 111.230469 L 131.496094 111.21875 L 131.464844 111.195312 L 131.453125 111.183594 L 131.441406 111.167969 L 131.425781 111.15625 L 131.410156 111.140625 L 131.398438 111.125 L 131.390625 111.109375 L 131.378906 111.09375 L 131.371094 111.074219 L 131.359375 111.058594 L 131.351562 111.042969 L 131.34375 111.023438 L 131.335938 111.007812 L 131.332031 110.988281 L 131.324219 110.96875 L 131.320312 110.949219 L 131.316406 110.933594 L 131.3125 110.910156 L 131.308594 110.890625 L 131.308594 110.871094 L 131.304688 110.851562 L 131.304688 102.808594 L 131.308594 102.789062 L 131.308594 102.769531 L 131.3125 102.746094 L 131.320312 102.707031 L 131.324219 102.691406 L 131.332031 102.671875 L 131.335938 102.652344 L 131.34375 102.636719 L 131.351562 102.617188 L 131.359375 102.601562 L 131.371094 102.585938 L 131.378906 102.566406 L 131.390625 102.550781 L 131.398438 102.535156 L 131.410156 102.519531 L 131.425781 102.503906 L 131.441406 102.492188 L 131.453125 102.476562 L 131.464844 102.464844 L 131.480469 102.453125 L 131.496094 102.4375 L 131.507812 102.429688 L 131.523438 102.414062 L 131.539062 102.402344 L 131.558594 102.394531 L 131.574219 102.382812 L 131.613281 102.367188 L 131.628906 102.359375 L 131.648438 102.355469 L 131.664062 102.347656 L 131.742188 102.332031 L 131.785156 102.332031 L 131.804688 102.328125 L 141.804688 102.328125 L 141.804688 92.308594 L 141.808594 92.289062 L 141.808594 92.269531 L 141.8125 92.246094 L 141.820312 92.207031 L 141.824219 92.191406 L 141.832031 92.171875 L 141.835938 92.152344 L 141.84375 92.136719 L 141.851562 92.117188 L 141.859375 92.101562 L 141.871094 92.085938 L 141.878906 92.066406 L 141.890625 92.050781 L 141.898438 92.035156 L 141.910156 92.019531 L 141.925781 92.003906 L 141.941406 91.992188 L 141.953125 91.976562 L 141.964844 91.964844 L 141.980469 91.953125 L 141.996094 91.9375 L 142.007812 91.929688 L 142.023438 91.914062 L 142.039062 91.902344 L 142.058594 91.894531 L 142.074219 91.882812 L 142.113281 91.867188 L 142.128906 91.859375 L 142.148438 91.855469 L 142.164062 91.847656 L 142.242188 91.832031 L 142.285156 91.832031 L 142.304688 91.828125 L 150.304688 91.828125 L 150.324219 91.832031 Z M 150.347656 91.832031 "/>
</g>
</svg>
